# xmcd CD database file
#
# Track frame offsets:
#	150
#	23466
#	46660
#	71735
#	83414
#	100546
#	121648
#	139631
#	158730
#	183305
#	205313
#	222559
#	250909
#
# Disc length: 3501 seconds
#
# Revision: 0
# Processed by: cddbd v1.5.2PL0 Copyright (c) Steve Scherf et al.
# Submitted via: CDex 1.51
#
DISCID=9f0dab0d
DTITLE=Earl Klugh - The Spice Of Life
DYEAR=2008
DGENRE=Jazz
TTITLE0=Ocean Blue
TTITLE1=Sleepyhead
TTITLE2=Canadian Sunset
TTITLE3=Venezuelan Nights
TTITLE4=Driftin'
TTITLE5=Snap!
TTITLE6=Bye Ya
TTITLE7=Heart Of My Life
TTITLE8=Morning In Rio
TTITLE9=C'est Si Bon
TTITLE10=Lucy's World
TTITLE11=My Foolish Heart
TTITLE12=The Toy Guitar
EXTD=YEAR: 2008
EXTT0=
EXTT1=
EXTT2=
EXTT3=
EXTT4=
EXTT5=
EXTT6=
EXTT7=
EXTT8=
EXTT9=
EXTT10=
EXTT11=
EXTT12=
PLAYORDER=
